<?xml version="1.0" standalone="no"?>
<!DOCTYPE svg PUBLIC "-//W3C//DTD SVG 20010904//EN"
 "http://www.w3.org/TR/2001/REC-SVG-20010904/DTD/svg10.dtd">
<svg version="1.0" xmlns="http://www.w3.org/2000/svg"
 width="700.000000pt" height="700.000000pt" viewBox="0 0 700.000000 700.000000"
 preserveAspectRatio="xMidYMid meet">
<metadata>
Created by potrace 1.11, written by Peter Selinger 2001-2013
</metadata>
<g transform="translate(0.000000,700.000000) scale(0.100000,-0.100000)"
fill="#000000" stroke="none">
<path d="M110 6724 c-99 -44 -135 -147 -85 -244 25 -49 34 -54 340 -185 99
-42 203 -87 230 -99 28 -13 97 -43 154 -67 107 -46 114 -52 125 -120 3 -19 19
-101 37 -184 17 -82 33 -159 35 -170 2 -11 6 -31 9 -45 3 -14 7 -34 9 -45 2
-11 16 -76 30 -145 14 -69 44 -213 66 -320 49 -234 90 -436 96 -470 3 -13 12
-56 20 -95 22 -99 23 -104 33 -160 6 -27 20 -95 31 -150 12 -55 24 -111 26
-125 3 -14 18 -88 34 -165 16 -77 32 -153 35 -170 2 -16 7 -40 10 -52 14 -62
55 -257 61 -293 3 -14 20 -100 39 -192 19 -93 51 -246 70 -340 20 -95 49 -236
65 -313 16 -77 35 -165 41 -195 14 -75 46 -230 64 -311 29 -134 89 -213 205
-268 l55 -26 2110 -3 c1902 -2 2114 -1 2152 13 130 50 142 237 19 306 l-41 23
-2078 0 -2077 0 -10 36 c-13 48 -90 429 -90 444 0 9 493 12 2148 12 2004 0
2150 1 2199 17 140 46 220 148 248 317 3 19 10 51 15 70 5 19 11 51 14 70 3
19 16 87 30 150 20 92 69 330 92 445 2 11 9 45 16 75 6 30 12 57 13 60 3 13
16 77 20 100 3 14 9 48 15 75 6 28 12 59 14 70 8 40 95 462 110 530 8 39 17
82 20 95 2 14 14 70 26 125 11 55 23 115 26 134 2 18 6 36 8 40 3 3 7 26 11
51 4 25 8 47 10 50 2 3 6 24 9 46 4 23 10 54 15 71 5 16 7 63 6 103 -6 140
-90 254 -228 307 -38 15 -288 17 -2749 18 -1489 0 -2710 4 -2713 7 -3 3 -8 18
-11 33 -9 52 -86 420 -98 476 -20 83 -45 129 -101 184 -45 45 -77 62 -256 139
-112 49 -226 99 -254 111 -27 12 -79 35 -115 50 -36 16 -105 46 -154 67 -104
46 -157 54 -206 32z m6522 -1443 c25 -1 26 -3 18 -33 -5 -18 -12 -46 -14 -63
-3 -16 -37 -183 -76 -370 -39 -187 -73 -352 -75 -367 -8 -43 -75 -362 -80
-378 -2 -8 -7 -28 -9 -45 -3 -16 -10 -55 -16 -85 -6 -30 -14 -66 -16 -80 -3
-14 -10 -45 -15 -70 -6 -25 -13 -56 -15 -70 -3 -14 -18 -90 -35 -170 -16 -80
-31 -154 -33 -165 -3 -11 -19 -87 -36 -170 -18 -82 -34 -163 -37 -180 -3 -16
-7 -37 -8 -45 -2 -8 -4 -21 -4 -27 -1 -10 -441 -13 -2166 -13 -1308 0 -2165 4
-2165 9 0 5 -18 99 -41 208 -23 109 -43 207 -45 218 -2 11 -21 106 -43 210
-22 105 -42 201 -44 215 -3 14 -24 115 -47 225 -23 110 -44 211 -46 225 -5 26
-50 246 -60 290 -3 14 -7 39 -10 55 -3 17 -9 46 -14 65 -5 19 -12 50 -15 68
-3 18 -23 118 -45 222 -22 104 -42 204 -45 222 -3 18 -10 47 -14 65 -8 28 -7
32 12 35 18 2 5153 1 5239 -1z"/>
<path d="M2758 4729 c-90 -14 -150 -90 -143 -181 4 -58 39 -109 95 -139 33
-18 87 -19 1303 -19 1368 0 1292 -3 1351 49 64 56 69 177 10 236 -63 63 35 58
-1335 59 -685 1 -1262 -2 -1281 -5z"/>
<path d="M2950 3840 c-127 -8 -181 -46 -199 -143 -14 -78 22 -147 97 -183 32
-15 129 -16 1167 -17 1064 0 1133 1 1169 18 100 47 127 169 59 262 -49 67 4
64 -1159 66 -577 1 -1087 0 -1134 -3z"/>
<path d="M2810 1479 c-225 -44 -423 -240 -475 -469 -17 -74 -14 -221 5 -290
43 -160 176 -321 320 -392 238 -116 504 -75 697 106 317 296 228 816 -172
1004 -102 48 -255 65 -375 41z m206 -343 c29 -6 93 -47 121 -77 40 -43 67
-119 66 -184 -2 -254 -314 -362 -478 -166 -94 111 -70 293 50 383 70 53 140
66 241 44z"/>
<path d="M4954 1475 c-67 -14 -169 -61 -224 -103 -49 -37 -150 -142 -150 -157
0 -2 -13 -26 -28 -52 -41 -70 -70 -187 -70 -283 0 -176 58 -313 182 -435 85
-83 161 -130 266 -161 63 -19 227 -26 274 -13 17 5 45 12 61 15 73 13 179 78
260 159 118 118 171 234 181 394 13 190 -57 360 -205 499 -54 50 -203 126
-279 141 -70 14 -192 13 -268 -4z m201 -336 c127 -30 208 -134 207 -264 0 -98
-41 -173 -121 -224 -110 -69 -246 -55 -336 34 -164 165 -60 443 174 463 14 1
49 -3 76 -9z"/>
</g>
</svg>
